<svg width="148" height="35" viewBox="0 0 148 35" fill="none" xmlns="http://www.w3.org/2000/svg">
<g clip-path="url(#clip0_3225_47198)">
<path d="M137.914 14.9859L120.601 2.45051C120.365 2.27862 120.081 2.1875 119.792 2.1875H115.925C115.026 2.1875 114.651 3.35137 115.376 3.88981L137.392 20.2316C137.44 20.2668 137.504 20.2668 137.552 20.2316L137.997 19.9189C138.186 19.7863 138.366 19.6351 138.505 19.4488C139.668 17.8935 139.238 15.9447 137.912 14.9838L137.914 14.9859Z" fill="#FFFFFF"/>
<path d="M134.481 22.975C135.305 22.4138 135.303 21.1837 134.476 20.6245L124.838 14.1052C124.526 13.865 124.082 13.9064 123.817 14.2005C123.552 14.4946 123.552 14.946 123.817 15.2401L128.019 20.2393C128.311 20.5645 128.452 21.0014 128.405 21.4405C128.357 21.8774 128.125 22.273 127.779 22.5194L115.335 31.0475C114.579 31.5653 114.933 32.7602 115.844 32.7706L119.595 32.812C119.872 32.8141 120.146 32.7333 120.378 32.578L134.481 22.975Z" fill="#FFFFFF"/>
<path d="M18.5145 24.6882C17.0151 24.6882 16.0376 23.9219 16.0376 22.1782V15.9281C16.0376 15.576 16.3234 15.2903 16.6755 15.2903H20.1422C20.4943 15.2903 20.7801 15.0045 20.7801 14.6524V12.2149C20.7801 11.8629 20.4943 11.5771 20.1422 11.5771H16.5719C16.2199 11.5771 15.9341 11.2913 15.9341 10.9392V7.38549C15.9341 6.87812 15.3708 6.57369 14.9462 6.85119L11.8813 8.85379C11.7011 8.97183 11.5913 9.17271 11.5913 9.38809V10.9392C11.5913 11.2913 11.3055 11.5771 10.9535 11.5771H9.38785C9.03579 11.5771 8.75 11.8629 8.75 12.2149V14.6524C8.75 15.0045 9.03579 15.2903 9.38785 15.2903H10.9369C11.289 15.2903 11.5748 15.576 11.5748 15.9281V22.8222C11.5748 26.7632 14.0516 28.6623 17.7296 28.6623C18.881 28.6623 20.2437 28.4759 21.2585 28.1756C21.5567 28.0866 21.7513 27.8008 21.7182 27.4922C21.6457 26.8481 21.5194 25.734 21.4386 25.0029C21.3972 24.626 21.0389 24.3775 20.6682 24.4541C19.9227 24.6074 19.1544 24.6882 18.5165 24.6882H18.5145Z" fill="#FFFFFF"/>
<path d="M28.6269 12.1489C28.6145 11.8299 28.3536 11.5773 28.0346 11.5773H24.8744C24.5472 11.5773 24.28 11.8424 24.28 12.1717V27.7244C24.28 28.0516 24.5451 28.3187 24.8744 28.3187H28.1692C28.4965 28.3187 28.7636 28.0537 28.7636 27.7244V19.7389C28.7636 16.2866 30.8387 15.2221 32.8081 15.2221C33.3445 15.2221 33.8229 15.305 34.2185 15.4044C34.5705 15.4934 34.9143 15.2428 34.9474 14.8804L35.1918 12.0909C35.2166 11.8051 35.0385 11.5421 34.761 11.4675C34.3344 11.3516 33.7297 11.2314 33.0525 11.2314C31.725 11.2314 30.526 11.6746 29.6355 12.5465C29.2668 12.9068 28.6476 12.6666 28.629 12.1509L28.6269 12.1489Z" fill="#FFFFFF"/>
<path d="M48.9676 20.9752C48.9676 23.102 47.5905 24.5496 45.5154 24.5496C43.4403 24.5496 42.1667 23.102 42.1667 20.9752V12.1696C42.1667 11.8423 41.9016 11.5752 41.5723 11.5752H38.2775C37.9503 11.5752 37.6831 11.8403 37.6831 12.1696V21.5323C37.6831 25.701 40.7688 28.6646 45.5133 28.6646C50.2578 28.6646 53.4284 25.6658 53.4284 21.4287V12.1716C53.4284 11.8444 53.1633 11.5773 52.8341 11.5773H49.5578C49.2306 11.5773 48.9635 11.8423 48.9635 12.1716V20.9772L48.9676 20.9752Z" fill="#FFFFFF"/>
<path d="M103.858 11.2295C98.8874 11.2295 95.2612 14.8205 95.2612 19.9481C95.2612 25.0758 99.0614 28.6668 104.99 28.6668C107.237 28.6668 109.323 28.12 110.905 27.3124C111.141 27.1923 111.274 26.9355 111.228 26.6745L110.804 24.2184C110.739 23.8436 110.346 23.6282 109.994 23.7711C108.497 24.3779 106.805 24.7444 105.007 24.7444C102.663 24.7444 100.797 23.9368 100.014 22.2552C99.8049 21.8078 100.138 21.2922 100.633 21.2922H111.294C111.591 21.2922 111.847 21.0789 111.887 20.7848C112.69 14.8909 108.859 11.2316 103.856 11.2316L103.858 11.2295ZM100.176 18.2914C99.9581 18.2914 99.7966 18.0905 99.8421 17.8793C100.211 16.1935 101.749 14.9965 103.961 14.9965C106.173 14.9965 107.465 16.2267 107.751 17.8938C107.786 18.1009 107.625 18.2914 107.416 18.2914H100.178H100.176Z" fill="#FFFFFF"/>
<path d="M80.9531 28.6639C82.1045 28.6639 83.4672 28.4775 84.482 28.1772C84.7802 28.0882 84.9749 27.8024 84.9417 27.4917L84.6621 25.0066C84.6207 24.6297 84.2625 24.3791 83.8918 24.4557C83.1462 24.609 82.3779 24.6898 81.7401 24.6898C80.2407 24.6898 79.2632 23.9235 79.2632 22.1798V15.9297C79.2632 15.5776 79.549 15.2919 79.9011 15.2919H83.3678C83.7199 15.2919 84.0057 15.0061 84.0057 14.654V12.2165C84.0057 11.8645 83.7199 11.5787 83.3678 11.5787H79.752C79.4247 11.5787 79.1576 11.3136 79.1576 10.9843L79.1307 7.38295C79.1265 6.87764 78.5632 6.57736 78.1408 6.85486L75.1027 8.85953C74.9246 8.97757 74.8169 9.17845 74.8169 9.39176V10.9408C74.8169 11.2929 74.5311 11.5787 74.1791 11.5787H72.6134C72.2614 11.5787 71.9756 11.8645 71.9756 12.2165V14.654C71.9756 15.0061 72.2614 15.2919 72.6134 15.2919H74.1625C74.5146 15.2919 74.8003 15.5776 74.8003 15.9297V22.8238C74.8003 26.7648 77.2772 28.6639 80.9552 28.6639H80.9531Z" fill="#FFFFFF"/>
<path d="M69.5547 12.2753C69.3434 12.1821 69.1198 12.0972 68.8899 12.0144C67.4713 11.5132 65.6882 11.2295 63.8886 11.2295C59.4423 11.2295 56.5471 13.375 56.5471 16.4959C56.5471 19.2689 58.1169 20.907 61.3413 21.4661L63.346 21.8493C65.2989 22.1972 66.0134 22.6341 66.0134 23.5226C66.0134 24.5166 65.0877 24.9702 62.909 24.9702C61.4242 24.9702 59.5168 24.6139 57.9554 24.0631C57.6012 23.9388 57.2264 24.177 57.1788 24.5477L56.8598 27.0245C56.8267 27.2834 56.9613 27.5423 57.2015 27.6437C58.7257 28.2857 60.9541 28.6647 63.2549 28.6647C67.5438 28.6647 70.3333 26.7988 70.3333 23.4335C70.3333 20.5383 68.6766 19.039 65.3652 18.4281L63.5862 18.0967C61.5816 17.7302 60.8485 17.3118 60.8485 16.4938C60.8485 15.4998 61.9129 14.9758 64.1102 14.9758C65.0483 14.9758 66.7734 15.3341 67.9455 15.6095C68.5958 15.7628 69.2316 15.3092 69.302 14.6424L69.5505 12.2732L69.5547 12.2753Z" fill="#FFFFFF"/>
<path d="M88.769 4.04922C88.5143 4.22318 88.361 4.51104 88.361 4.81961V21.4306C88.361 22.8347 87.9531 23.7562 87.1558 24.216L87.1785 24.4086L87.4271 27.37C87.4643 27.8215 87.8205 28.1756 88.272 28.2212C89.1066 28.304 90.4196 28.2688 91.2666 27.428C92.3041 26.3967 92.71 24.7089 92.71 22.5737V3.12766C92.71 2.37798 91.8713 1.9348 91.2521 2.35727L88.7669 4.05129L88.769 4.04922Z" fill="#FFFFFF"/>
</g>
<defs>
<clipPath id="clip0_3225_47198">
<rect width="130.432" height="30.625" fill="white" transform="translate(8.75 2.1875)"/>
</clipPath>
</defs>
</svg>
